<?xml version="1.0" encoding="UTF-8" standalone="no"?><!DOCTYPE svg PUBLIC "-//W3C//DTD SVG 1.1//EN" "http://www.w3.org/Graphics/SVG/1.1/DTD/svg11.dtd"><svg width="100%" height="100%" viewBox="0 0 30 50" version="1.1" xmlns="http://www.w3.org/2000/svg" xmlns:xlink="http://www.w3.org/1999/xlink" xml:space="preserve" xmlns:serif="http://www.serif.com/" style="fill-rule:evenodd;clip-rule:evenodd;"><path d="M24.994,24.78c-0.026,-0.422 -0.192,-0.822 -0.473,-1.139l-17.037,-18.928c-0.454,-0.507 -1.144,-0.733 -1.81,-0.592c-0.666,0.141 -1.205,0.627 -1.415,1.274c-0.209,0.647 -0.057,1.357 0.4,1.862l15.898,17.656l-15.898,17.657c-0.457,0.504 -0.609,1.214 -0.4,1.861c0.21,0.648 0.749,1.134 1.415,1.274c0.666,0.141 1.356,-0.085 1.81,-0.591l17.037,-18.929c0.342,-0.384 0.513,-0.892 0.473,-1.405Z" style="fill:#acd9b2;fill-rule:nonzero;stroke:#acd9b2;stroke-width:5px;"/></svg>